<?xml version="1.0" ?><svg id="icon" style="enable-background:new 0 0 512 512;" version="1.1" viewBox="0 0 512 512" xml:space="preserve" xmlns="http://www.w3.org/2000/svg" xmlns:xlink="http://www.w3.org/1999/xlink"><path d="M319.6618958,170.8078613l92.8535156-105.9399414c1.8110352-2.0664063,2.2456055-5.0009766,1.1113281-7.503418  c-1.1342773-2.5029297-3.6279297-4.1103516-6.3754883-4.1103516H104.7488022c-3.8662109,0-7,3.1337891-7,7v391.4916992  c0,3.8662109,3.1337891,7,7,7s7-3.1337891,7-7V288.3605957h295.5024414c2.7475586,0,5.2412109-1.6074219,6.3754883-4.1103516  c1.1342773-2.5024414,0.699707-5.4375-1.1113281-7.503418L319.6618958,170.8078613z M111.7488022,274.3605957V67.2541504h280.059082  l-86.7182617,98.9399414c-2.3144531,2.640625-2.3144531,6.5869141,0,9.2275391l86.7177734,98.9389648H111.7488022z"/></svg>